<svg width="91" height="119" viewBox="0 0 91 119" fill="none" xmlns="http://www.w3.org/2000/svg">
<g clip-path="url(#clip0_33_563)">
<path d="M0 22.5879H91L87.2184 11.6981H7.17028H3.78164L0 22.5879Z" fill="#F4E5D8"/>
<path d="M10.9519 0L7.17029 11.6981H83.2362L80.0481 0H10.9519Z" fill="#F5DEC1"/>
<path d="M7.17029 22.5879L14.9341 119H75.4684L83.2362 22.5879H7.17029Z" fill="#EDD5B6"/>
<path d="M8.95886 44.9769H81.4316L77.2971 96.3065H13.1094L8.95886 44.9769Z" fill="#EA5514"/>
<path d="M45.5 87.6343C52.419 87.6343 58.0279 80.0946 58.0279 70.7939C58.0279 61.4932 52.419 53.9535 45.5 53.9535C38.581 53.9535 32.972 61.4932 32.972 70.7939C32.972 80.0946 38.581 87.6343 45.5 87.6343Z" fill="#9F6C40"/>
</g>
<defs>
<clipPath id="clip0_33_563">
<rect width="91" height="119" fill="white"/>
</clipPath>
</defs>
</svg>
