<svg width="102" height="106" viewBox="0 0 102 106" fill="none" xmlns="http://www.w3.org/2000/svg">
<g clip-path="url(#clip0_33_489)">
<path d="M0 54.6315H102C102 54.6315 102 88.2566 69.756 99.1453V106H32.244V99.1453C32.244 99.1453 3.44904 91.8297 0 54.6315Z" fill="#EA5514"/>
<path d="M16.872 46.7971C23.2403 45.7348 28.1494 43.5138 27.8368 41.8363C27.5241 40.1588 22.1081 39.6601 15.7397 40.7224C9.37133 41.7847 4.4622 44.0057 4.77487 45.6832C5.08753 47.3607 10.5036 47.8594 16.872 46.7971Z" fill="#231815"/>
<path d="M40.4664 45.5251C44.7136 42.1537 47.3529 38.5144 46.3614 37.3965C45.3698 36.2786 41.123 38.1055 36.8757 41.477C32.6285 44.8484 29.9892 48.4878 30.9807 49.6056C31.9723 50.7235 36.2191 48.8966 40.4664 45.5251Z" fill="#231815"/>
<path d="M18.697 28.6808C21.5526 24.1849 22.7956 19.9309 21.4734 19.1794C20.1512 18.4278 16.7644 21.4632 13.9089 25.9591C11.0533 30.455 9.81027 34.7089 11.1325 35.4605C12.4547 36.212 15.8415 33.1767 18.697 28.6808Z" fill="#231815"/>
<path d="M72.6826 19.4862C75.5382 14.9903 76.7812 10.7364 75.459 9.98482C74.1368 9.23324 70.75 12.2686 67.8945 16.7645C65.0389 21.2604 63.7959 25.5143 65.1181 26.2659C66.4403 27.0175 69.8271 23.9821 72.6826 19.4862Z" fill="#231815"/>
<path d="M54.1148 27.2886C55.7906 27.009 56.2899 22.1722 55.2299 16.4851C54.1699 10.7981 51.952 6.41447 50.2762 6.69402C48.6003 6.97357 48.101 11.8105 49.161 17.4975C50.221 23.1845 52.4389 27.5681 54.1148 27.2886Z" fill="#231815"/>
<path d="M37.7538 11.6469C42.0036 7.18172 44.384 2.65494 43.0704 1.53602C41.7568 0.417108 37.2467 3.12978 32.9968 7.59493C28.747 12.0601 26.3666 16.5869 27.6802 17.7058C28.9938 18.8247 33.5039 16.112 37.7538 11.6469Z" fill="#231815"/>
<path d="M34.099 28.2803C39.0823 25.981 42.5739 23.0538 41.8976 21.7422C41.2214 20.4306 36.6335 21.2313 31.6503 23.5306C26.667 25.8299 23.1755 28.7571 23.8517 30.0687C24.5279 31.3803 29.1158 30.5796 34.099 28.2803Z" fill="#231815"/>
<path d="M63.8586 48.8222C69.3187 47.9114 73.5279 46.008 73.26 44.5709C72.9922 43.1338 68.3487 42.7072 62.8885 43.6179C57.4284 44.5287 53.2192 46.4321 53.4871 47.8692C53.7549 49.3063 58.3984 49.7329 63.8586 48.8222Z" fill="#231815"/>
<path d="M62.0461 36.0023C62.5333 34.3949 57.9832 31.7504 51.8832 30.0957C45.7832 28.441 40.4431 28.4027 39.9559 30.0101C39.4687 31.6175 44.0188 34.262 50.1188 35.9167C56.2188 37.5714 61.5588 37.6097 62.0461 36.0023Z" fill="#231815"/>
<path d="M100.346 46.1211C100.772 44.7184 96.7959 42.4092 91.4663 40.9635C86.1367 39.5177 81.4715 39.4829 81.0464 40.8856C80.6212 42.2884 84.597 44.5975 89.9265 46.0433C95.2561 47.489 99.9213 47.5238 100.346 46.1211Z" fill="#231815"/>
<path d="M65.8911 6.26675C66.3163 4.86401 62.3405 2.55487 57.0109 1.10913C51.6813 -0.336601 47.0161 -0.371459 46.5909 1.03128C46.1657 2.43402 50.1415 4.74317 55.4711 6.1889C60.8007 7.63464 65.4659 7.66949 65.8911 6.26675Z" fill="#231815"/>
<path d="M75.112 36.327C80.0953 34.0278 83.5868 31.1006 82.9106 29.789C82.2344 28.4774 77.6465 29.2781 72.6632 31.5774C67.68 33.8767 64.1884 36.8039 64.8646 38.1154C65.5409 39.427 70.1288 38.6263 75.112 36.327Z" fill="#231815"/>
<path d="M91.3213 34.7748C92.7614 34.2519 92.3181 29.8584 90.3311 24.9617C88.3442 20.065 85.5661 16.5194 84.126 17.0424C82.6859 17.5653 83.1292 21.9588 85.1161 26.8555C87.103 31.7522 89.8812 35.2978 91.3213 34.7748Z" fill="#231815"/>
</g>
<defs>
<clipPath id="clip0_33_489">
<rect width="102" height="106" fill="white"/>
</clipPath>
</defs>
</svg>
