<svg width="71" height="71" viewBox="0 0 71 71" fill="none" xmlns="http://www.w3.org/2000/svg">
<circle cx="35.5" cy="35.5" r="35.5" transform="rotate(90 35.5 35.5)" fill="black"/>
<g clip-path="url(#clip0_33_969)">
<path d="M27.7234 13.2135C27.7597 13.2764 27.796 13.3392 27.8323 13.4021C27.796 13.3392 27.8226 13.2401 27.7234 13.2135C27.7863 13.1772 27.7234 13.2135 27.7234 13.2135Z" fill="#FF7A00"/>
<path d="M25.6961 14.0581L25.2631 14.3081L25.5131 14.7411C30.4779 23.3403 39.8634 28.0251 49.2799 27.5843C44.1242 35.4031 43.5165 45.7811 48.4159 54.41L48.6646 54.8479L49.1007 54.5961L52.873 52.4182L53.3032 52.1698L53.0577 51.738C47.7685 42.4352 50.5831 30.5841 59.4658 24.7196L59.8588 24.4601L59.6233 24.0523L57.4454 20.28L57.2098 19.872L56.7886 20.0829C47.2061 24.8791 35.5009 21.3288 30.1514 12.0631L29.9014 11.6301L29.4684 11.8801L25.6961 14.0581Z" fill="#FF7A00" stroke="#FF7A00"/>
<path d="M59.2783 24.745L59.7113 24.495L59.4613 24.062L57.2834 20.2897L57.0334 19.8567L56.6003 20.1067L12.3387 45.6612L11.9057 45.9112L12.1557 46.3442L14.3336 50.1165L14.5836 50.5495L15.0166 50.2995L59.2783 24.745Z" fill="#FF7A00" stroke="#FF7A00"/>
</g>
<rect x="46.339" y="3.04309" width="44.9545" height="50.1816" transform="rotate(60 46.339 3.04309)" stroke="black"/>
<defs>
<clipPath id="clip0_33_969">
</clipPath>
</defs>
</svg>
