<svg width="137" height="92" viewBox="0 0 137 92" fill="none" xmlns="http://www.w3.org/2000/svg">
<g clip-path="url(#clip0_325_9015)">
<path d="M136.359 81.8203L0.438477 81.8203L0.438477 91.9997L136.359 91.9997L136.359 81.8203Z" fill="#C9C9C9"/>
<path d="M68.4384 30.2294C73.8786 30.2294 78.2888 25.9481 78.2888 20.6669C78.2888 15.3857 73.8786 11.1045 68.4384 11.1045C62.9981 11.1045 58.5879 15.3857 58.5879 20.6669C58.5879 25.9481 62.9981 30.2294 68.4384 30.2294Z" stroke="white" stroke-miterlimit="10"/>
<path d="M124.125 69.9447C113.798 69.9447 99.7375 66.86 99.7375 62.233C99.7375 57.606 99.7375 57.606 99.7375 57.606L101.565 57.606L101.565 29.8441C100.929 29.6898 100.373 29.5356 99.7375 29.4585C99.7375 29.4585 90.8403 30.6924 90.8403 22.9807C90.8403 15.2691 84.7235 -3.28451e-06 68.359 -2.6468e-06C51.9946 -2.00909e-06 45.9572 15.2691 45.9572 22.9807C45.9572 30.6924 37.06 29.4585 37.06 29.4585C36.4245 29.5356 35.7889 29.6899 35.1534 29.8441L35.1534 57.606L37.06 57.606C37.06 57.606 37.06 57.606 37.06 62.233C37.06 66.86 22.9992 69.9447 12.6721 69.9447C2.34502 69.9447 0.438481 81.8206 0.438481 81.8206L136.438 81.8206C136.438 81.8206 134.453 69.9447 124.125 69.9447ZM68.4385 30.2297C62.9572 30.2297 58.588 25.9111 58.588 20.6672C58.588 15.4233 63.0366 11.1048 68.4385 11.1048C73.8403 11.1048 78.2889 15.4233 78.2889 20.6672C78.2889 25.9111 73.8403 30.2297 68.4385 30.2297Z" fill="#F2F2F2"/>
<path d="M11.957 43.1859L11.957 57.5295L35.1533 57.5295L35.1533 29.7676C22.5225 32.7751 11.957 43.1859 11.957 43.1859Z" fill="#EAEAEA"/>
<path d="M124.84 57.5295L124.84 43.1859C124.84 43.1859 114.275 32.7751 101.564 29.7676L101.564 57.5295L124.84 57.5295Z" fill="#EAEAEA"/>
<ellipse cx="114.831" cy="49.3542" rx="3.17757" ry="3.08467" fill="white"/>
<ellipse cx="21.8875" cy="49.3542" rx="3.17757" ry="3.08467" fill="white"/>
</g>
<defs>
<clipPath id="clip0_325_9015">
<rect width="136" height="92" fill="white" transform="translate(0.438477)"/>
</clipPath>
</defs>
</svg>
