<svg width="51" height="73" viewBox="0 0 51 73" fill="none" xmlns="http://www.w3.org/2000/svg">
<path d="M25.38 58.84C20.94 58.84 16.94 57.9 13.38 56.02C9.86 54.14 7.08 51.54 5.04 48.22C3.04 44.9 2.04 41.16 2.04 37C2.04 32.84 3.04 29.1 5.04 25.78C7.08 22.46 9.86 19.86 13.38 17.98C16.94 16.1 20.94 15.16 25.38 15.16C29.82 15.16 33.8 16.1 37.32 17.98C40.88 19.86 43.66 22.46 45.66 25.78C47.7 29.1 48.72 32.84 48.72 37C48.72 41.16 47.7 44.9 45.66 48.22C43.66 51.54 40.88 54.14 37.32 56.02C33.8 57.9 29.82 58.84 25.38 58.84ZM25.38 49C27.5 49 29.42 48.5 31.14 47.5C32.86 46.5 34.22 45.1 35.22 43.3C36.22 41.46 36.72 39.36 36.72 37C36.72 34.64 36.22 32.56 35.22 30.76C34.22 28.92 32.86 27.5 31.14 26.5C29.42 25.5 27.5 25 25.38 25C23.26 25 21.34 25.5 19.62 26.5C17.9 27.5 16.54 28.92 15.54 30.76C14.54 32.56 14.04 34.64 14.04 37C14.04 39.36 14.54 41.46 15.54 43.3C16.54 45.1 17.9 46.5 19.62 47.5C21.34 48.5 23.26 49 25.38 49Z" fill="#FF8C24"/>
<circle cx="10.5" cy="18.5" r="4.5" fill="#1B1A1A"/>
<circle cx="22.5" cy="18.5" r="4.5" fill="#1B1A1A"/>
</svg>
