<svg width="329" height="183" viewBox="0 0 329 183" fill="none" xmlns="http://www.w3.org/2000/svg">
<path d="M271.343 170.195C271.343 170.195 271.852 181.867 276.143 182.376L283.914 177.064C283.914 177.064 280.144 175.433 278.828 169.955L271.343 170.195Z" fill="#799EFF"/>
<path d="M87.9632 26.3065L92.0895 31.5323C92.0895 31.5323 88.3662 37.6656 86.1577 36.2658L80.9998 29.7335C80.9998 29.7335 85.2926 29.6637 87.9632 26.3065Z" fill="#FF8484"/>
<path d="M315.004 90.4647L323.929 87.3003C323.929 87.3003 330.424 95.1956 327.521 97.5384L316.365 101.494C316.365 101.494 318.266 95.6436 315.004 90.4647Z" fill="#FF9A84"/>
<path d="M230.294 1.21866L240.095 6.04253C240.095 6.04253 238.883 17.9877 234.494 17.5442L222.217 11.5016C222.217 11.5016 228.575 8.16206 230.294 1.21866Z" fill="#FFAA5C"/>
<path d="M49.6797 4.91109L40.4884 1.88624C40.4884 1.88624 34.142 9.86755 37.2039 12.1067L48.671 15.875C48.6213 15.9616 46.557 10.1438 49.6797 4.91109Z" fill="#FFE486"/>
<path d="M259.894 113C259.894 113 255.633 124.683 259.894 126.866L270.17 124.683C270.17 124.683 266.912 121.602 267.789 115.696L259.894 113Z" fill="#F36BFF"/>
<path d="M7 109C7 109 12.2954 118.492 7 120.011H19.4024C19.4024 120.011 23.4437 116.341 19.4024 111.152L7 109Z" fill="#7CDDBA"/>
<path d="M124.947 26.5078V36.7033H134.277C134.277 36.7033 130.521 32.2501 131.611 28.5L124.947 26.5078Z" fill="#63CEE5"/>
</svg>
