<svg width="84" height="53" viewBox="0 0 84 53" fill="none" xmlns="http://www.w3.org/2000/svg">
<g clip-path="url(#clip0_57_271)">
<path d="M0 31.9714L75.3613 52.1644L75.7062 50.8775C74.8944 50.5873 74.3937 49.7998 74.5934 49.0547C74.793 48.3096 75.6204 47.8779 76.5515 48.0548L76.8056 47.1065C75.9107 46.7941 75.4101 46.0066 75.6098 45.2615C75.8094 44.5164 76.6367 44.0847 77.5679 44.2616L77.822 43.3132C76.9271 43.0009 76.4265 42.2133 76.6262 41.4682C76.8258 40.7231 77.6531 40.2914 78.5843 40.4683L78.8384 39.52C77.9435 39.2077 77.4429 38.4201 77.6426 37.675C77.8422 36.9299 78.6695 36.4982 79.6006 36.6751L79.8547 35.7268C78.9599 35.4144 78.4593 34.6269 78.6589 33.8818C78.8586 33.1367 79.6859 32.705 80.617 32.8819L80.8711 31.9336C79.9763 31.6212 79.4757 30.8337 79.6753 30.0886C79.875 29.3435 80.7023 28.9118 81.6334 29.0887L81.8875 28.1403C80.9927 27.828 80.4921 27.0404 80.6917 26.2953C80.8914 25.5502 81.7187 25.1185 82.6498 25.2954L82.9039 24.3471C82.0091 24.0348 81.5085 23.2472 81.7081 22.5021C81.9078 21.757 82.7351 21.3253 83.6662 21.5022L84.0111 20.2152L8.56673 -3.99249e-05L0 31.9714Z" fill="black"/>
<path d="M37.6193 24.243L40.4785 25.0091L39.0084 30.4956C38.1259 30.8527 37.162 31.0499 36.1167 31.0873C35.0714 31.1247 34.0593 31.0123 33.0805 30.75C31.6767 30.3738 30.494 29.7394 29.5322 28.8468C28.5739 27.9412 27.9143 26.8741 27.5533 25.6455C27.2087 24.4075 27.2158 23.1187 27.5747 21.7793C27.9336 20.4399 28.5701 19.3267 29.4841 18.4397C30.4145 17.5433 31.5257 16.9507 32.8178 16.662C34.1134 16.3603 35.4695 16.3993 36.8862 16.7789C38.0711 17.0964 39.093 17.5842 39.9519 18.2422C40.8109 18.9003 41.467 19.6973 41.9202 20.6331L39.4141 21.9494C38.7208 20.6731 37.6916 19.8521 36.3264 19.4863C35.4635 19.2551 34.6489 19.2301 33.8826 19.4112C33.1162 19.5924 32.4583 19.9613 31.9088 20.5181C31.3593 21.0748 30.9707 21.7782 30.743 22.6282C30.5186 23.4654 30.5052 24.2624 30.7027 25.0193C30.9002 25.7762 31.2773 26.4294 31.8341 26.9789C32.4072 27.519 33.1187 27.9029 33.9687 28.1306C34.8703 28.3722 35.7334 28.3964 36.5582 28.2033L37.6193 24.243ZM47.8106 34.6969C46.4068 34.3208 45.2193 33.6782 44.2482 32.7692C43.2899 31.8636 42.6302 30.7966 42.2693 29.5679C41.9246 28.3299 41.93 27.0476 42.2855 25.721C42.6409 24.3945 43.2757 23.2878 44.1897 22.4008C45.1201 21.5044 46.2266 20.9036 47.5093 20.5985C48.8048 20.2969 50.1545 20.3342 51.5583 20.7103C52.9621 21.0865 54.1432 21.7273 55.1014 22.6328C56.0597 23.5384 56.7176 24.6119 57.0752 25.8534C57.4361 27.082 57.4389 28.3596 57.0835 29.6862C56.728 31.0127 56.0851 32.1242 55.1547 33.0206C54.2278 33.9041 53.123 34.4984 51.8403 34.8035C50.5577 35.1086 49.2144 35.0731 47.8106 34.6969ZM48.5249 32.031C49.3234 32.2449 50.093 32.2579 50.8336 32.0698C51.5776 31.8688 52.2179 31.4883 52.7545 30.9281C53.304 30.3713 53.6909 29.6744 53.9152 28.8372C54.1395 28.0001 54.1529 27.2031 53.9554 26.4462C53.7708 25.6927 53.4049 25.0494 52.8575 24.5162C52.3137 23.9702 51.6425 23.5902 50.844 23.3763C50.0455 23.1623 49.2742 23.1558 48.5302 23.3567C47.7896 23.5448 47.1446 23.9172 46.5951 24.474C46.0585 25.0342 45.678 25.7328 45.4537 26.57C45.2294 27.4071 45.2095 28.2024 45.3942 28.9559C45.5917 29.7128 45.9623 30.3642 46.5062 30.9103C47.0535 31.4434 47.7265 31.817 48.5249 32.031Z" fill="white"/>
</g>
<defs>
<clipPath id="clip0_57_271">
<rect width="33.0993" height="78.0198" fill="white" transform="translate(0 31.9714) rotate(-75)"/>
</clipPath>
</defs>
</svg>
