<svg width="37" height="37" viewBox="0 0 37 37" fill="none" xmlns="http://www.w3.org/2000/svg">
<path d="M6.01217 18.4993C6.01217 15.8631 8.15509 13.7202 10.7913 13.7202H16.958V10.791H10.7913C6.53634 10.791 3.08301 14.2443 3.08301 18.4993C3.08301 22.7543 6.53634 26.2077 10.7913 26.2077H16.958V23.2785H10.7913C8.15509 23.2785 6.01217 21.1356 6.01217 18.4993ZM12.333 20.041H24.6663V16.9577H12.333V20.041ZM26.208 10.791H20.0413V13.7202H26.208C28.8443 13.7202 30.9872 15.8631 30.9872 18.4993C30.9872 21.1356 28.8443 23.2785 26.208 23.2785H20.0413V26.2077H26.208C30.463 26.2077 33.9163 22.7543 33.9163 18.4993C33.9163 14.2443 30.463 10.791 26.208 10.791Z" fill="black"/>
</svg>
