<svg width="223" height="224" viewBox="0 0 223 224" fill="none" xmlns="http://www.w3.org/2000/svg">
<g clip-path="url(#clip0_33_875)">
<path d="M181.845 152.788C204.339 113.828 190.99 64.0103 152.03 41.5168C113.07 19.0233 63.2524 32.372 40.7589 71.3319C18.2654 110.292 31.614 160.11 70.5739 182.603C109.534 205.097 159.352 191.748 181.845 152.788Z" fill="#FF8C24"/>
<path d="M75.0322 78.2834C73.6273 78.8001 72.1779 78.6273 70.8243 78.2884C69.4708 77.9496 68.1429 77.1829 67.1025 75.9183C65.9663 74.8197 65.3537 73.5808 64.9328 72.0099C64.6779 70.5348 64.5889 69.1556 65.1896 67.7319C65.6243 66.2124 66.4611 65.1463 67.6555 63.8441C68.6583 62.8739 69.7312 62.1655 70.8743 61.7189C72.0174 61.2723 73.1348 61.2535 74.4182 61.3306L74.1426 64.4911C72.4315 64.3884 71.1224 64.7392 70.0238 65.8754C69.3786 66.6095 68.7335 67.3436 68.5161 68.1033C68.2988 68.8631 68.2475 69.7187 68.3621 70.6701C68.5725 71.4556 68.949 72.3368 69.6831 72.982C70.4172 73.6271 71.1513 74.2723 71.911 74.4896C72.6708 74.7069 73.5264 74.7583 74.4778 74.6437C75.2633 74.4332 76.1445 74.0568 76.7897 73.3227C77.8883 72.1865 78.3931 70.9287 78.3298 69.1217L81.5161 68.9695C81.7009 70.1827 81.4579 71.3703 80.8829 72.3662C80.4739 73.4579 79.6371 74.524 78.6343 75.4942C77.7718 76.9881 76.4371 77.7666 75.0322 78.2834Z" fill="black"/>
<path d="M87.8443 67.9754C86.3949 67.8026 85.0414 67.4637 83.8094 66.5311C82.5773 65.5985 81.6071 64.5957 81.0903 63.1908C80.4076 61.69 80.3187 60.3108 80.4915 58.8614C80.6644 57.412 81.1692 56.1543 82.1018 54.9223C83.0345 53.6902 84.2033 52.8159 85.704 52.1331C87.2047 51.4504 88.6798 51.1954 90.1292 51.3683C91.5785 51.5412 92.9321 51.88 94.1641 52.8127C95.3962 53.7453 96.3664 54.7481 96.8831 56.153C97.3999 57.5579 97.6548 59.0329 97.482 60.4823C97.3091 61.9317 96.8043 63.1894 95.8716 64.4215C94.939 65.6535 93.7702 66.5279 92.2695 67.2106C90.7688 67.8934 89.2937 68.1483 87.8443 67.9754ZM93.0499 62.7923C93.5992 62.2242 93.9124 61.2985 93.9637 60.4429C94.0151 59.5873 93.9005 58.6359 93.524 57.7546C93.1476 56.8733 92.6753 56.158 91.8454 55.6789C91.1113 55.0337 90.3515 54.8164 89.4959 54.765C88.6403 54.7137 87.6889 54.8283 86.8076 55.2047C85.9264 55.5812 85.2111 56.0535 84.7319 56.8834C84.1826 57.4515 83.8694 58.3772 83.8181 59.2328C83.7667 60.0884 83.8814 61.0399 84.2578 61.9211C84.6342 62.8024 85.1065 63.5177 85.9364 63.9969C86.6705 64.642 87.4303 64.8593 88.2859 64.9107C89.1415 64.962 90.0929 64.8474 90.9742 64.471C91.9513 63.9285 92.5006 63.3604 93.0499 62.7923Z" fill="black"/>
<path d="M114.888 59.4663L115.136 62.4865L102.889 63.3829L101.77 47.6878L113.756 46.8616L114.004 49.8818L105.658 50.1537L105.881 53.6018L113.3 53.0168L113.478 55.7752L106.058 56.3602L106.351 60.0701L114.888 59.4663Z" fill="black"/>
<path d="M128.903 62.0249L121.803 60.139L119.65 63.101L116.018 62.1101L126.8 48.4174L130.267 49.3124L133.186 66.4895L129.553 65.4986L128.903 62.0249ZM128.489 58.9088L127.591 52.4147L123.668 57.6749L128.489 58.9088Z" fill="black"/>
<path d="M143.303 58.1664L139.083 55.5088L140.616 52.8531L152.375 60.0849L150.842 62.7406L146.622 60.0831L139.87 71.0123L136.812 69.0256L143.303 58.1664Z" fill="black"/>
<path d="M162.51 95.8133L159.866 96.9426L154.519 85.8881L168.837 79.1053L173.852 89.9681L171.112 91.2634L167.532 83.6639L164.435 85.1953L167.638 91.9136L165.161 93.1387L161.957 86.4205L158.598 88.0221L162.51 95.8133Z" fill="black"/>
<path d="M165.277 109.804L164.43 102.454L160.797 101.464L160.339 97.6579L176.862 102.771L177.25 106.315L162.376 115.211L161.918 111.406L165.277 109.804ZM167.946 108.247L173.547 105.063L167.303 103.228L167.946 108.247Z" fill="black"/>
<path d="M174.091 121.754L174.993 116.741L177.961 117.349L175.429 130.936L172.46 130.328L173.362 125.316L160.701 123.096L161.43 119.534L174.091 121.754Z" fill="black"/>
<path d="M153.193 159.483L157.082 156.196L158.997 158.63L148.427 167.355L146.512 164.921L150.402 161.634L142.245 151.613L145.131 149.296L153.193 159.483Z" fill="black"/>
<path d="M134.134 157.996C135.583 158.169 137.007 158.769 138.073 159.606C139.139 160.443 140.013 161.612 140.696 163.112C141.213 164.517 141.468 165.992 141.129 167.346C140.956 168.795 140.189 170.123 139.352 171.189C138.254 172.325 137.085 173.2 135.68 173.717C134.179 174.399 132.634 174.392 131.185 174.22C129.735 174.047 128.312 173.446 127.246 172.609C126.014 171.677 125.305 170.604 124.622 169.103C124.106 167.698 123.851 166.223 124.19 164.869C124.362 163.42 125.129 162.092 125.966 161.026C126.899 159.794 128.233 159.016 129.638 158.499C131.043 157.982 132.684 157.823 134.134 157.996ZM128.596 162.987C128.047 163.555 127.734 164.481 127.516 165.241C127.465 166.096 127.413 166.952 127.79 167.833C128.166 168.715 128.639 169.43 129.373 170.075C130.107 170.72 130.867 170.938 131.626 171.155C132.482 171.206 133.338 171.258 134.219 170.881C135.1 170.505 135.815 170.032 136.365 169.464C136.914 168.896 137.227 167.97 137.444 167.211C137.496 166.355 137.547 165.5 137.171 164.618C136.794 163.737 136.322 163.022 135.588 162.377C134.854 161.731 134.094 161.514 133.334 161.297C132.479 161.245 131.623 161.194 130.742 161.57C129.695 161.851 128.979 162.323 128.596 162.987Z" fill="black"/>
<path d="M108.238 170.266L104.885 170.322L104.843 163.88C105.654 163.242 106.631 162.699 107.94 162.348C109.083 161.902 110.201 161.883 111.318 161.864C112.863 161.871 114.479 162.14 115.806 162.906C117.134 163.673 118.2 164.51 118.979 165.845C119.758 167.179 120.108 168.488 120.101 170.034C120.095 171.579 119.756 172.932 118.989 174.26C118.222 175.588 117.22 176.558 115.981 177.171C114.646 177.95 113.171 178.204 111.46 178.102C110.08 178.191 108.727 177.852 107.635 177.443C106.543 177.034 105.643 176.293 104.839 175.386L107.202 173.209C108.339 174.308 109.666 175.075 111.307 174.915C112.425 174.897 113.21 174.686 114.092 174.31C114.807 173.838 115.522 173.365 116.001 172.535C116.481 171.705 116.698 170.946 116.679 169.828C116.564 168.877 116.45 167.925 115.978 167.21C115.505 166.495 114.937 165.945 114.107 165.466C113.277 164.987 112.518 164.77 111.4 164.789C110.283 164.807 109.497 165.018 108.616 165.394L108.238 170.266Z" fill="black"/>
<path d="M88.9322 160.005L89.8717 157.228L101.479 161.274L96.3721 176.252L85.0971 172.398L86.0366 169.621L93.9406 172.413L95.1676 169.138L88.1894 166.658L89.1289 163.881L96.1071 166.361L97.2639 162.824L88.9322 160.005Z" fill="black"/>
<path d="M77.1692 164.28L81.1972 167.269L79.332 169.733L68.3138 161.601L70.179 159.137L74.2071 162.127L81.7897 151.677L84.7517 153.83L77.1692 164.28Z" fill="black"/>
<path d="M54.8147 144.734L67.6455 135.543L69.7006 138.5L64.4061 142.304L68.6121 148.052L73.9066 144.248L75.9617 147.205L63.1309 156.396L61.0758 153.439L66.1085 149.705L61.9025 143.957L56.8698 147.691L54.8147 144.734Z" fill="black"/>
<path d="M60.0071 121.174L62.887 120.403L66.4717 132.21L51.2608 136.707L47.9122 125.257L50.7922 124.485L53.2288 132.531L56.4664 131.524L54.3104 124.525L57.0244 123.657L59.1803 130.656L62.6798 129.578L60.0071 121.174Z" fill="black"/>
<path d="M62.6356 107.421L58.0821 110.325L57.9863 110.491L57.8767 113.748L62.2505 113.838L62.1152 117.523L46.261 117L46.41 110.226C46.487 108.942 46.8259 107.589 47.2349 106.497C47.8099 105.501 48.455 104.767 49.2661 104.129C50.2432 103.586 51.2905 103.306 52.3121 103.453C53.4295 103.434 54.5212 103.843 55.3511 104.322C56.1811 104.801 56.7235 105.779 57.2659 106.756L62.5348 103.38L62.6356 107.421ZM50.4143 107.89C49.865 108.458 49.6476 109.218 49.6664 110.335L49.6527 113.426L55.1439 113.498L55.3236 110.503C55.3048 109.386 55.0944 108.6 54.6221 107.885C54.054 107.336 53.556 107.048 52.7004 106.997C51.749 107.111 50.9636 107.322 50.4143 107.89Z" fill="black"/>
<path d="M63.4969 90.2136C64.3437 88.7469 63.8412 86.8714 62.3744 86.0246C60.9077 85.1778 59.0322 85.6803 58.1854 87.147C57.3386 88.6137 57.8411 90.4892 59.3078 91.3361C60.7746 92.1829 62.6501 91.6803 63.4969 90.2136Z" fill="black"/>
<path d="M162.297 143.715C163.144 142.248 162.641 140.373 161.174 139.526C159.708 138.679 157.832 139.181 156.985 140.648C156.138 142.115 156.641 143.99 158.108 144.837C159.574 145.684 161.45 145.182 162.297 143.715Z" fill="black"/>
<path d="M158.462 75.9924C159.309 74.5257 158.806 72.6502 157.339 71.8034C155.873 70.9565 153.997 71.4591 153.15 72.9258C152.303 74.3926 152.806 76.2681 154.273 77.1149C155.739 77.9617 157.615 77.4591 158.462 75.9924Z" fill="black"/>
</g>
<defs>
<clipPath id="clip0_33_875">
<rect width="162.912" height="162.912" fill="white" transform="translate(0.0307617 141.875) rotate(-60)"/>
</clipPath>
</defs>
</svg>
