<svg width="209" height="71" viewBox="0 0 209 71" fill="none" xmlns="http://www.w3.org/2000/svg">
<path d="M24.302 56.812C20.0487 56.812 16.2207 55.9227 12.818 54.144C9.454 52.3267 6.80533 49.8133 4.872 46.604C2.93867 43.3947 1.972 39.76 1.972 35.7C1.972 31.64 2.93867 28.0053 4.872 24.796C6.80533 21.5867 9.454 19.0927 12.818 17.314C16.2207 15.4967 20.0487 14.588 24.302 14.588C28.014 14.588 31.3587 15.2453 34.336 16.56C37.3133 17.8747 39.788 19.7693 41.76 22.244L34.452 28.856C31.8227 25.6853 28.6327 24.1 24.882 24.1C22.678 24.1 20.706 24.5833 18.966 25.55C17.2647 26.5167 15.9307 27.8893 14.964 29.668C14.036 31.408 13.572 33.4187 13.572 35.7C13.572 37.9813 14.036 40.0113 14.964 41.79C15.9307 43.53 17.2647 44.8833 18.966 45.85C20.706 46.8167 22.678 47.3 24.882 47.3C28.6327 47.3 31.8227 45.7147 34.452 42.544L41.76 49.156C39.788 51.6307 37.3133 53.5253 34.336 54.84C31.3587 56.1547 28.014 56.812 24.302 56.812ZM127.367 47.126V56H94.7711V15.4H126.613V24.274H106.139V31.118H124.177V39.702H106.139V47.126H127.367ZM160.362 48.112H143.194L140.004 56H128.288L146.21 15.4H157.52L175.5 56H163.552L160.362 48.112ZM156.998 39.644L151.778 26.652L146.558 39.644H156.998ZM184.778 24.506H172.308V15.4H208.674V24.506H196.262V56H184.778V24.506Z" fill="black"/>
<path d="M66.7743 56.812C62.4823 56.812 58.6156 55.9033 55.1743 54.086C51.7716 52.2687 49.0843 49.7553 47.1123 46.546C45.179 43.3367 44.2123 39.7213 44.2123 35.7C44.2123 31.6787 45.179 28.0633 47.1123 24.854C49.0843 21.6447 51.7716 19.1313 55.1743 17.314C58.6156 15.4967 62.4823 14.588 66.7743 14.588C71.0663 14.588 74.9136 15.4967 78.3163 17.314C81.7576 19.1313 84.445 21.6447 86.3783 24.854C88.3503 28.0633 89.3363 31.6787 89.3363 35.7C89.3363 39.7213 88.3503 43.3367 86.3783 46.546C84.445 49.7553 81.7576 52.2687 78.3163 54.086C74.9136 55.9033 71.0663 56.812 66.7743 56.812ZM66.7743 47.3C68.8236 47.3 70.6796 46.8167 72.3423 45.85C74.005 44.8833 75.3196 43.53 76.2863 41.79C77.253 40.0113 77.7363 37.9813 77.7363 35.7C77.7363 33.4187 77.253 31.408 76.2863 29.668C75.3196 27.8893 74.005 26.5167 72.3423 25.55C70.6796 24.5833 68.8236 24.1 66.7743 24.1C64.725 24.1 62.869 24.5833 61.2063 25.55C59.5436 26.5167 58.229 27.8893 57.2623 29.668C56.2956 31.408 55.8123 33.4187 55.8123 35.7C55.8123 37.9813 56.2956 40.0113 57.2623 41.79C58.229 43.53 59.5436 44.8833 61.2063 45.85C62.869 46.8167 64.725 47.3 66.7743 47.3Z" fill="#FF8C24"/>
<circle cx="67" cy="16" r="4" fill="#1B1A1A"/>
<circle cx="57" cy="16" r="4" fill="#1B1A1A"/>
</svg>
