<svg width="21" height="11" viewBox="0 0 21 11" fill="none" xmlns="http://www.w3.org/2000/svg">
<path d="M2.89578 5.67584C2.89578 3.96766 4.28431 2.57913 5.99249 2.57913H9.98824V0.681152H5.99249C3.23542 0.681152 0.997803 2.91877 0.997803 5.67584C0.997803 8.4329 3.23542 10.6705 5.99249 10.6705H9.98824V8.77254H5.99249C4.28431 8.77254 2.89578 7.38402 2.89578 5.67584ZM6.99143 6.67477H14.9829V4.6769H6.99143V6.67477ZM15.9819 0.681152H11.9861V2.57913H15.9819C17.69 2.57913 19.0786 3.96766 19.0786 5.67584C19.0786 7.38402 17.69 8.77254 15.9819 8.77254H11.9861V10.6705H15.9819C18.7389 10.6705 20.9765 8.4329 20.9765 5.67584C20.9765 2.91877 18.7389 0.681152 15.9819 0.681152Z" fill="#2B2B2B"/>
</svg>
