<svg width="48" height="59" viewBox="0 0 48 59" fill="none" xmlns="http://www.w3.org/2000/svg">
<circle cx="24" cy="30" r="24" fill="#F2F4F5"/>
<path d="M24.304 47.672C20.752 47.672 17.552 46.92 14.704 45.416C11.888 43.912 9.664 41.832 8.032 39.176C6.432 36.52 5.632 33.528 5.632 30.2C5.632 26.872 6.432 23.88 8.032 21.224C9.664 18.568 11.888 16.488 14.704 14.984C17.552 13.48 20.752 12.728 24.304 12.728C27.856 12.728 31.04 13.48 33.856 14.984C36.704 16.488 38.928 18.568 40.528 21.224C42.16 23.88 42.976 26.872 42.976 30.2C42.976 33.528 42.16 36.52 40.528 39.176C38.928 41.832 36.704 43.912 33.856 45.416C31.04 46.92 27.856 47.672 24.304 47.672ZM24.304 39.8C26 39.8 27.536 39.4 28.912 38.6C30.288 37.8 31.376 36.68 32.176 35.24C32.976 33.768 33.376 32.088 33.376 30.2C33.376 28.312 32.976 26.648 32.176 25.208C31.376 23.736 30.288 22.6 28.912 21.8C27.536 21 26 20.6 24.304 20.6C22.608 20.6 21.072 21 19.696 21.8C18.32 22.6 17.232 23.736 16.432 25.208C15.632 26.648 15.232 28.312 15.232 30.2C15.232 32.088 15.632 33.768 16.432 35.24C17.232 36.68 18.32 37.8 19.696 38.6C21.072 39.4 22.608 39.8 24.304 39.8Z" fill="#FF8C24"/>
<circle cx="12.5" cy="15.5" r="3.5" fill="#1B1A1A"/>
<circle cx="21.5" cy="15.5" r="3.5" fill="#1B1A1A"/>
</svg>
