<svg width="27" height="27" viewBox="0 0 27 27" fill="none" xmlns="http://www.w3.org/2000/svg">
<g filter="url(#filter0_d_338_11178)">
<path fill-rule="evenodd" clip-rule="evenodd" d="M8.24499 1.58354H4.00008V0H9.54174L10.3334 0.791768V6.33414H8.75008V3.16707C7.33097 4.23198 6.31065 5.74276 5.85281 7.45703C5.39497 9.1713 5.52615 10.9897 6.22531 12.6205C6.92446 14.2513 8.15107 15.5999 9.70833 16.45C11.2656 17.3002 13.0632 17.6025 14.8129 17.3085C16.5625 17.0146 18.1627 16.1414 19.3567 14.829C20.5507 13.5166 21.2694 11.8411 21.3974 10.0714C21.5253 8.30163 21.0552 6.54018 20.0624 5.06963C19.0696 3.59909 17.6117 2.50468 15.9226 1.962L16.4007 0.451308C18.4506 1.10868 20.2164 2.44281 21.4089 4.23513C22.6015 6.02746 23.15 8.17172 22.9647 10.3166C22.7794 12.4615 21.8713 14.4799 20.389 16.0411C18.9068 17.6023 16.9383 18.6138 14.8061 18.9098C12.674 19.2058 10.5045 18.7688 8.65311 17.6704C6.80174 16.5719 5.37824 14.8773 4.61582 12.8639C3.8534 10.8506 3.79727 8.63797 4.45662 6.58855C5.11596 4.53913 6.4517 2.77443 8.24499 1.58354Z" fill="#666666"/>
</g>
<defs>
<filter id="filter0_d_338_11178" x="0" y="0" width="27" height="27" filterUnits="userSpaceOnUse" color-interpolation-filters="sRGB">
<feFlood flood-opacity="0" result="BackgroundImageFix"/>
<feColorMatrix in="SourceAlpha" type="matrix" values="0 0 0 0 0 0 0 0 0 0 0 0 0 0 0 0 0 0 127 0" result="hardAlpha"/>
<feOffset dy="4"/>
<feGaussianBlur stdDeviation="2"/>
<feComposite in2="hardAlpha" operator="out"/>
<feColorMatrix type="matrix" values="0 0 0 0 0 0 0 0 0 0 0 0 0 0 0 0 0 0 0.25 0"/>
<feBlend mode="normal" in2="BackgroundImageFix" result="effect1_dropShadow_338_11178"/>
<feBlend mode="normal" in="SourceGraphic" in2="effect1_dropShadow_338_11178" result="shape"/>
</filter>
</defs>
</svg>
