<svg width="14.55" height="14.55" viewBox="0 0 14.55 14.55" fill="none" xmlns="http://www.w3.org/2000/svg">
<path fill-rule="evenodd" clip-rule="evenodd" d="M3.90447 2.08347H1.00005V1H4.79172L5.33338 1.54174V5.33389H4.25005V3.16694C3.27908 3.89556 2.58097 4.92925 2.26771 6.10218C1.95445 7.2751 2.04421 8.51927 2.52258 9.63507C3.00095 10.7509 3.8402 11.6736 4.9057 12.2553C5.97119 12.837 7.20116 13.0438 8.39828 12.8427C9.59539 12.6416 10.6903 12.0441 11.5072 11.1461C12.3242 10.2482 12.8159 9.10183 12.9035 7.89095C12.991 6.68006 12.6693 5.47486 11.9901 4.4687C11.3108 3.46253 10.3133 2.71373 9.15755 2.34242L9.48471 1.30879C10.8872 1.75857 12.0954 2.67139 12.9114 3.89772C13.7273 5.12405 14.1026 6.59117 13.9759 8.05874C13.8491 9.52631 13.2277 10.9073 12.2135 11.9755C11.1994 13.0437 9.85254 13.7357 8.39368 13.9383C6.93482 14.1408 5.45044 13.8418 4.18371 13.0902C2.91698 12.3387 1.94301 11.1792 1.42135 9.80163C0.899697 8.42408 0.86129 6.91019 1.31242 5.50796C1.76355 4.10572 2.67748 2.89829 3.90447 2.08347Z" fill="#FF7A00" stroke="#FF7A00" stroke-width="0.5"/>
</svg>
