<svg width="66" height="67" viewBox="0 0 66 67" fill="none" xmlns="http://www.w3.org/2000/svg">
<g clip-path="url(#clip0_325_9037)">
<path d="M0 34.5312H66C66 34.5312 66 55.7849 45.1362 62.6673V67.0001H20.8638V62.6673C20.8638 62.6673 2.23173 58.0434 0 34.5312Z" fill="#FF7A00"/>
<path d="M10.9175 29.579C15.0382 28.9075 18.2147 27.5036 18.0124 26.4434C17.81 25.3831 14.3055 25.0679 10.1848 25.7393C6.06413 26.4108 2.88764 27.8146 3.08995 28.8749C3.29226 29.9352 6.79677 30.2504 10.9175 29.579Z" fill="#231815"/>
<path d="M26.1842 28.7754C28.9324 26.6444 30.6402 24.344 29.9986 23.6375C29.357 22.9309 26.609 24.0856 23.8608 26.2167C21.1126 28.3477 19.4049 30.648 20.0464 31.3546C20.688 32.0611 23.436 30.9064 26.1842 28.7754Z" fill="#231815"/>
<path d="M12.0981 18.1286C13.9458 15.2868 14.7501 12.598 13.8946 12.123C13.039 11.6479 10.8476 13.5665 8.99989 16.4083C7.15217 19.25 6.34786 21.9388 7.20341 22.4139C8.05897 22.8889 10.2504 20.9703 12.0981 18.1286Z" fill="#231815"/>
<path d="M47.0298 12.3171C48.8775 9.47533 49.6818 6.78654 48.8262 6.31149C47.9707 5.83643 45.7792 7.755 43.9315 10.5967C42.0838 13.4385 41.2795 16.1273 42.1351 16.6023C42.9906 17.0774 45.182 15.1588 47.0298 12.3171Z" fill="#231815"/>
<path d="M35.0156 17.2482C36.1 17.0715 36.4231 14.0142 35.7372 10.4196C35.0513 6.82493 33.6162 4.05414 32.5318 4.23084C31.4474 4.40754 31.1244 7.46481 31.8103 11.0594C32.4961 14.6541 33.9312 17.4248 35.0156 17.2482Z" fill="#231815"/>
<path d="M24.4292 7.36201C27.1792 4.5397 28.7194 1.67843 27.8694 0.971192C27.0194 0.263954 24.1011 1.97856 21.3512 4.80088C18.6013 7.62319 17.0611 10.4845 17.9111 11.1917C18.7611 11.8989 21.6793 10.1843 24.4292 7.36201Z" fill="#231815"/>
<path d="M22.0645 17.8756C25.2889 16.4222 27.5482 14.572 27.1106 13.743C26.6731 12.914 23.7044 13.4201 20.48 14.8734C17.2555 16.3267 14.9963 18.1769 15.4338 19.006C15.8714 19.835 18.84 19.3289 22.0645 17.8756Z" fill="#231815"/>
<path d="M41.3197 30.8594C44.8527 30.2837 47.5763 29.0806 47.403 28.1723C47.2297 27.2639 44.2251 26.9942 40.6921 27.5699C37.159 28.1456 34.4354 29.3487 34.6087 30.257C34.7821 31.1654 37.7867 31.4351 41.3197 30.8594Z" fill="#231815"/>
<path d="M40.1477 22.7565C40.4629 21.7405 37.5187 20.069 33.5717 19.0231C29.6246 17.9772 26.1693 17.953 25.854 18.969C25.5388 19.985 28.4829 21.6565 32.43 22.7024C36.3771 23.7483 39.8324 23.7725 40.1477 22.7565Z" fill="#231815"/>
<path d="M64.9298 29.152C65.2049 28.2654 62.6324 26.8058 59.1838 25.892C55.7353 24.9782 52.7166 24.9562 52.4415 25.8428C52.1664 26.7295 54.739 28.189 58.1875 29.1028C61.6361 30.0167 64.6547 30.0387 64.9298 29.152Z" fill="#231815"/>
<path d="M42.6349 3.96065C42.91 3.07401 40.3375 1.61446 36.8889 0.700646C33.4403 -0.213168 30.4217 -0.235201 30.1466 0.651437C29.8715 1.53808 32.4441 2.99763 35.8926 3.91144C39.3412 4.82526 42.3598 4.84729 42.6349 3.96065Z" fill="#231815"/>
<path d="M48.6016 22.9615C51.8261 21.5082 54.0853 19.658 53.6478 18.829C53.2102 17.9999 50.2416 18.506 47.0171 19.9593C43.7927 21.4127 41.5334 23.2629 41.971 24.0919C42.4085 24.9209 45.3771 24.4148 48.6016 22.9615Z" fill="#231815"/>
<path d="M59.0901 21.9799C60.0219 21.6493 59.7351 18.8723 58.4494 15.7772C57.1637 12.6822 55.3661 10.4411 54.4343 10.7716C53.5025 11.1021 53.7893 13.8792 55.075 16.9743C56.3606 20.0693 58.1583 22.3104 59.0901 21.9799Z" fill="#231815"/>
</g>
<defs>
<clipPath id="clip0_325_9037">
<rect width="66" height="67" fill="white"/>
</clipPath>
</defs>
</svg>
