<svg width="26" height="26" viewBox="0 0 26 26" fill="none" xmlns="http://www.w3.org/2000/svg">
<circle cx="13" cy="13" r="13" fill="#F2F4F5"/>
<path d="M13.1648 22.5725C11.2408 22.5725 9.50745 22.1652 7.96478 21.3505C6.43945 20.5359 5.23478 19.4092 4.35078 17.9705C3.48411 16.5319 3.05078 14.9112 3.05078 13.1085C3.05078 11.3059 3.48411 9.6852 4.35078 8.24653C5.23478 6.80786 6.43945 5.6812 7.96478 4.86653C9.50745 4.05186 11.2408 3.64453 13.1648 3.64453C15.0888 3.64453 16.8134 4.05186 18.3388 4.86653C19.8815 5.6812 21.0861 6.80786 21.9528 8.24653C22.8368 9.6852 23.2788 11.3059 23.2788 13.1085C23.2788 14.9112 22.8368 16.5319 21.9528 17.9705C21.0861 19.4092 19.8815 20.5359 18.3388 21.3505C16.8134 22.1652 15.0888 22.5725 13.1648 22.5725ZM13.1648 18.3085C14.0834 18.3085 14.9154 18.0919 15.6608 17.6585C16.4061 17.2252 16.9954 16.6185 17.4288 15.8385C17.8621 15.0412 18.0788 14.1312 18.0788 13.1085C18.0788 12.0859 17.8621 11.1845 17.4288 10.4045C16.9954 9.6072 16.4061 8.99187 15.6608 8.55853C14.9154 8.1252 14.0834 7.90853 13.1648 7.90853C12.2461 7.90853 11.4141 8.1252 10.6688 8.55853C9.92345 8.99187 9.33412 9.6072 8.90078 10.4045C8.46745 11.1845 8.25078 12.0859 8.25078 13.1085C8.25078 14.1312 8.46745 15.0412 8.90078 15.8385C9.33412 16.6185 9.92345 17.2252 10.6688 17.6585C11.4141 18.0919 12.2461 18.3085 13.1648 18.3085Z" fill="#FF7A00"/>
<path d="M8.66667 5.14583C8.66667 6.19287 7.81787 7.04167 6.77083 7.04167C5.72379 7.04167 4.875 6.19287 4.875 5.14583C4.875 4.09879 5.72379 3.25 6.77083 3.25C7.81787 3.25 8.66667 4.09879 8.66667 5.14583Z" fill="#2B2B2B"/>
<path d="M13.5417 5.14583C13.5417 6.19287 12.6929 7.04167 11.6458 7.04167C10.5988 7.04167 9.75 6.19287 9.75 5.14583C9.75 4.09879 10.5988 3.25 11.6458 3.25C12.6929 3.25 13.5417 4.09879 13.5417 5.14583Z" fill="#2B2B2B"/>
</svg>
